<svg width="169.98" height="28.8" viewBox="0 0 169.98 28.8" xmlns="http://www.w3.org/2000/svg"><g id="svgGroup" stroke-linecap="round" fill-rule="evenodd" font-size="9pt" stroke="#000" stroke-width="0.25mm" fill="#000" style="stroke:#000;stroke-width:0.25mm;fill:#000"><path d="M 122.94 22.2 L 120.24 22.2 L 120.24 0 L 122.94 0 L 122.94 9.09 Q 123.78 7.86 125.07 7.05 A 5.272 5.272 0 0 1 127.207 6.297 A 6.779 6.779 0 0 1 128.1 6.24 Q 130.116 6.24 131.354 7.167 A 3.978 3.978 0 0 1 132.045 7.83 A 5.521 5.521 0 0 1 133.126 10.043 Q 133.322 10.836 133.347 11.763 A 10.129 10.129 0 0 1 133.35 12.03 L 133.35 22.2 L 130.65 22.2 L 130.65 12.33 A 5.887 5.887 0 0 0 130.549 11.208 Q 130.37 10.283 129.87 9.63 A 2.526 2.526 0 0 0 128.023 8.626 A 3.594 3.594 0 0 0 127.68 8.61 A 3.969 3.969 0 0 0 125.666 9.17 A 5.276 5.276 0 0 0 125.055 9.585 Q 123.81 10.56 122.94 11.88 L 122.94 22.2 Z M 43.98 20.7 L 42.12 22.5 L 34.05 14.19 L 34.05 22.2 L 31.35 22.2 L 31.35 0 L 34.05 0 L 34.05 12.69 L 41.1 6.3 L 42.66 8.01 L 36.63 13.35 L 43.98 20.7 Z M 45.33 20.94 L 46.47 18.69 Q 47.25 19.35 48.435 19.785 A 7.222 7.222 0 0 0 50.718 20.216 A 8.239 8.239 0 0 0 50.97 20.22 A 8.134 8.134 0 0 0 51.895 20.171 Q 52.851 20.061 53.44 19.705 A 2.321 2.321 0 0 0 53.505 19.665 A 2.235 2.235 0 0 0 53.965 19.277 A 1.516 1.516 0 0 0 54.36 18.24 A 2.137 2.137 0 0 0 54.266 17.596 A 1.864 1.864 0 0 0 54.045 17.13 Q 53.73 16.65 52.89 16.185 Q 52.131 15.765 50.76 15.284 A 31.082 31.082 0 0 0 50.46 15.18 A 13.985 13.985 0 0 1 49.141 14.657 Q 47.911 14.09 47.175 13.395 A 3.397 3.397 0 0 1 46.187 11.596 A 5.038 5.038 0 0 1 46.08 10.53 A 3.636 3.636 0 0 1 47.264 7.825 A 5.239 5.239 0 0 1 47.655 7.485 A 5.33 5.33 0 0 1 49.466 6.571 Q 50.233 6.343 51.152 6.272 A 11.258 11.258 0 0 1 52.02 6.24 A 12.238 12.238 0 0 1 53.354 6.309 Q 54.068 6.388 54.69 6.555 A 11.631 11.631 0 0 1 55.93 6.962 A 9.333 9.333 0 0 1 56.79 7.35 L 56.04 9.57 A 7.358 7.358 0 0 0 54.94 9.04 A 9.058 9.058 0 0 0 54.195 8.79 A 7.507 7.507 0 0 0 52.85 8.536 A 9.551 9.551 0 0 0 51.9 8.49 A 6.19 6.19 0 0 0 51.019 8.548 Q 50.093 8.682 49.53 9.12 Q 48.992 9.538 48.811 10.01 A 1.359 1.359 0 0 0 48.72 10.5 A 1.476 1.476 0 0 0 49.169 11.565 A 2.125 2.125 0 0 0 49.35 11.73 Q 49.97 12.232 51.75 12.82 A 25.298 25.298 0 0 0 51.81 12.84 Q 54.378 13.696 55.6 14.709 A 4.484 4.484 0 0 1 55.95 15.03 A 4.079 4.079 0 0 1 57.115 17.804 A 5.369 5.369 0 0 1 57.12 18.03 A 4.162 4.162 0 0 1 56.801 19.685 Q 56.411 20.595 55.545 21.256 A 4.986 4.986 0 0 1 55.425 21.345 Q 54.003 22.364 51.768 22.528 A 12.127 12.127 0 0 1 50.88 22.56 A 11.997 11.997 0 0 1 49.122 22.437 A 9.284 9.284 0 0 1 47.685 22.11 A 9.265 9.265 0 0 1 46.533 21.665 Q 45.939 21.385 45.464 21.041 A 5.468 5.468 0 0 1 45.33 20.94 Z M 81.81 20.94 L 82.95 18.69 Q 83.73 19.35 84.915 19.785 A 7.222 7.222 0 0 0 87.198 20.216 A 8.239 8.239 0 0 0 87.45 20.22 A 8.134 8.134 0 0 0 88.375 20.171 Q 89.331 20.061 89.92 19.705 A 2.321 2.321 0 0 0 89.985 19.665 A 2.235 2.235 0 0 0 90.445 19.277 A 1.516 1.516 0 0 0 90.84 18.24 A 2.137 2.137 0 0 0 90.746 17.596 A 1.864 1.864 0 0 0 90.525 17.13 Q 90.21 16.65 89.37 16.185 Q 88.611 15.765 87.24 15.284 A 31.082 31.082 0 0 0 86.94 15.18 A 13.985 13.985 0 0 1 85.621 14.657 Q 84.391 14.09 83.655 13.395 A 3.397 3.397 0 0 1 82.667 11.596 A 5.038 5.038 0 0 1 82.56 10.53 A 3.636 3.636 0 0 1 83.744 7.825 A 5.239 5.239 0 0 1 84.135 7.485 A 5.33 5.33 0 0 1 85.946 6.571 Q 86.713 6.343 87.632 6.272 A 11.258 11.258 0 0 1 88.5 6.24 A 12.238 12.238 0 0 1 89.834 6.309 Q 90.548 6.388 91.17 6.555 A 11.631 11.631 0 0 1 92.41 6.962 A 9.333 9.333 0 0 1 93.27 7.35 L 92.52 9.57 A 7.358 7.358 0 0 0 91.42 9.04 A 9.058 9.058 0 0 0 90.675 8.79 A 7.507 7.507 0 0 0 89.33 8.536 A 9.551 9.551 0 0 0 88.38 8.49 A 6.19 6.19 0 0 0 87.499 8.548 Q 86.573 8.682 86.01 9.12 Q 85.472 9.538 85.291 10.01 A 1.359 1.359 0 0 0 85.2 10.5 A 1.476 1.476 0 0 0 85.649 11.565 A 2.125 2.125 0 0 0 85.83 11.73 Q 86.45 12.232 88.23 12.82 A 25.298 25.298 0 0 0 88.29 12.84 Q 90.858 13.696 92.08 14.709 A 4.484 4.484 0 0 1 92.43 15.03 A 4.079 4.079 0 0 1 93.595 17.804 A 5.369 5.369 0 0 1 93.6 18.03 A 4.162 4.162 0 0 1 93.281 19.685 Q 92.891 20.595 92.025 21.256 A 4.986 4.986 0 0 1 91.905 21.345 Q 90.483 22.364 88.248 22.528 A 12.127 12.127 0 0 1 87.36 22.56 A 11.997 11.997 0 0 1 85.602 22.437 A 9.284 9.284 0 0 1 84.165 22.11 A 9.265 9.265 0 0 1 83.013 21.665 Q 82.419 21.385 81.944 21.041 A 5.468 5.468 0 0 1 81.81 20.94 Z M 104.85 20.94 L 105.99 18.69 Q 106.77 19.35 107.955 19.785 A 7.222 7.222 0 0 0 110.238 20.216 A 8.239 8.239 0 0 0 110.49 20.22 A 8.134 8.134 0 0 0 111.415 20.171 Q 112.371 20.061 112.96 19.705 A 2.321 2.321 0 0 0 113.025 19.665 A 2.235 2.235 0 0 0 113.485 19.277 A 1.516 1.516 0 0 0 113.88 18.24 A 2.137 2.137 0 0 0 113.786 17.596 A 1.864 1.864 0 0 0 113.565 17.13 Q 113.25 16.65 112.41 16.185 Q 111.651 15.765 110.28 15.284 A 31.082 31.082 0 0 0 109.98 15.18 A 13.985 13.985 0 0 1 108.661 14.657 Q 107.431 14.09 106.695 13.395 A 3.397 3.397 0 0 1 105.707 11.596 A 5.038 5.038 0 0 1 105.6 10.53 A 3.636 3.636 0 0 1 106.784 7.825 A 5.239 5.239 0 0 1 107.175 7.485 A 5.33 5.33 0 0 1 108.986 6.571 Q 109.753 6.343 110.672 6.272 A 11.258 11.258 0 0 1 111.54 6.24 A 12.238 12.238 0 0 1 112.874 6.309 Q 113.588 6.388 114.21 6.555 A 11.631 11.631 0 0 1 115.45 6.962 A 9.333 9.333 0 0 1 116.31 7.35 L 115.56 9.57 A 7.358 7.358 0 0 0 114.46 9.04 A 9.058 9.058 0 0 0 113.715 8.79 A 7.507 7.507 0 0 0 112.37 8.536 A 9.551 9.551 0 0 0 111.42 8.49 A 6.19 6.19 0 0 0 110.539 8.548 Q 109.613 8.682 109.05 9.12 Q 108.512 9.538 108.331 10.01 A 1.359 1.359 0 0 0 108.24 10.5 A 1.476 1.476 0 0 0 108.689 11.565 A 2.125 2.125 0 0 0 108.87 11.73 Q 109.49 12.232 111.27 12.82 A 25.298 25.298 0 0 0 111.33 12.84 Q 113.898 13.696 115.12 14.709 A 4.484 4.484 0 0 1 115.47 15.03 A 4.079 4.079 0 0 1 116.635 17.804 A 5.369 5.369 0 0 1 116.64 18.03 A 4.162 4.162 0 0 1 116.321 19.685 Q 115.931 20.595 115.065 21.256 A 4.986 4.986 0 0 1 114.945 21.345 Q 113.523 22.364 111.288 22.528 A 12.127 12.127 0 0 1 110.4 22.56 A 11.997 11.997 0 0 1 108.642 22.437 A 9.284 9.284 0 0 1 107.205 22.11 A 9.265 9.265 0 0 1 106.053 21.665 Q 105.459 21.385 104.984 21.041 A 5.468 5.468 0 0 1 104.85 20.94 Z M 158.61 28.8 L 155.91 28.8 L 155.91 10.59 Q 155.91 9.988 155.737 9.589 A 1.261 1.261 0 0 0 155.415 9.135 A 1.716 1.716 0 0 0 154.578 8.738 A 2.397 2.397 0 0 0 154.14 8.7 L 154.71 6.6 A 5.257 5.257 0 0 1 155.978 6.741 Q 157.645 7.156 158.16 8.79 Q 158.46 8.34 159.135 7.74 A 5.671 5.671 0 0 1 159.945 7.145 A 7.671 7.671 0 0 1 160.815 6.69 A 5.086 5.086 0 0 1 162.183 6.303 A 6.566 6.566 0 0 1 163.11 6.24 Q 164.91 6.24 166.485 7.185 A 6.699 6.699 0 0 1 168.638 9.275 A 8.239 8.239 0 0 1 169.02 9.915 A 7.705 7.705 0 0 1 169.769 12.027 Q 169.96 12.958 169.978 14.027 A 13.282 13.282 0 0 1 169.98 14.25 A 10.971 10.971 0 0 1 169.769 16.449 A 8.432 8.432 0 0 1 169.02 18.615 A 8.354 8.354 0 0 1 167.84 20.365 A 6.909 6.909 0 0 1 166.515 21.525 Q 164.97 22.56 163.17 22.56 Q 161.79 22.56 160.59 22.005 A 9.106 9.106 0 0 1 159.565 21.453 Q 159.061 21.136 158.663 20.778 A 5.605 5.605 0 0 1 158.61 20.73 L 158.61 28.8 Z M 27.66 15.51 L 16.74 15.51 A 7.226 7.226 0 0 0 17.082 17.018 Q 17.483 18.161 18.27 18.93 A 4.243 4.243 0 0 0 20.557 20.073 A 6.006 6.006 0 0 0 21.6 20.16 A 11.019 11.019 0 0 0 22.882 20.089 A 8.273 8.273 0 0 0 24.03 19.875 Q 25.11 19.59 26.1 19.14 L 26.73 21.45 A 12.231 12.231 0 0 1 25.43 21.938 A 15.559 15.559 0 0 1 24.3 22.245 A 11.674 11.674 0 0 1 22.772 22.491 A 15.608 15.608 0 0 1 21.27 22.56 A 8.495 8.495 0 0 1 18.946 22.258 A 6.332 6.332 0 0 1 15.945 20.415 A 7.056 7.056 0 0 1 14.383 17.553 Q 13.98 16.154 13.98 14.4 A 10.608 10.608 0 0 1 14.23 12.053 A 8.652 8.652 0 0 1 14.865 10.215 A 7.393 7.393 0 0 1 16.37 8.09 A 6.866 6.866 0 0 1 17.34 7.305 Q 18.93 6.24 21.03 6.24 A 8.566 8.566 0 0 1 22.671 6.389 Q 23.674 6.585 24.475 7.038 A 5.164 5.164 0 0 1 24.765 7.215 Q 26.25 8.19 27 9.84 A 8.456 8.456 0 0 1 27.728 12.799 A 10.03 10.03 0 0 1 27.75 13.47 A 22.561 22.561 0 0 1 27.663 15.479 A 20.779 20.779 0 0 1 27.66 15.51 Z M 12.48 22.2 L 0 22.2 L 0 1.2 L 2.85 1.2 L 2.85 19.65 L 12.48 19.65 L 12.48 22.2 Z M 64.698 22.158 A 8.164 8.164 0 0 0 67.29 22.56 A 9.218 9.218 0 0 0 67.972 22.535 A 7.577 7.577 0 0 0 71.265 21.54 Q 73.02 20.52 74.04 18.675 A 7.877 7.877 0 0 0 74.836 16.533 A 10.255 10.255 0 0 0 75.06 14.34 A 10.363 10.363 0 0 0 74.914 12.567 A 7.738 7.738 0 0 0 74.025 10.035 Q 72.99 8.22 71.235 7.23 A 7.455 7.455 0 0 0 69.843 6.622 A 8.321 8.321 0 0 0 67.29 6.24 A 9.398 9.398 0 0 0 66.816 6.252 A 7.851 7.851 0 0 0 63.33 7.23 Q 61.56 8.22 60.54 10.05 Q 59.52 11.88 59.52 14.4 Q 59.52 16.8 60.525 18.645 Q 61.53 20.49 63.3 21.525 A 7.368 7.368 0 0 0 64.698 22.158 Z M 141.978 22.158 A 8.164 8.164 0 0 0 144.57 22.56 A 9.218 9.218 0 0 0 145.252 22.535 A 7.577 7.577 0 0 0 148.545 21.54 Q 150.3 20.52 151.32 18.675 A 7.877 7.877 0 0 0 152.116 16.533 A 10.255 10.255 0 0 0 152.34 14.34 A 10.363 10.363 0 0 0 152.194 12.567 A 7.738 7.738 0 0 0 151.305 10.035 Q 150.27 8.22 148.515 7.23 A 7.455 7.455 0 0 0 147.123 6.622 A 8.321 8.321 0 0 0 144.57 6.24 A 9.398 9.398 0 0 0 144.096 6.252 A 7.851 7.851 0 0 0 140.61 7.23 Q 138.84 8.22 137.82 10.05 Q 136.8 11.88 136.8 14.4 Q 136.8 16.8 137.805 18.645 Q 138.81 20.49 140.58 21.525 A 7.368 7.368 0 0 0 141.978 22.158 Z M 67.29 20.16 A 5.622 5.622 0 0 0 68.858 19.953 A 4.2 4.2 0 0 0 70.98 18.555 A 5.641 5.641 0 0 0 72.126 16.128 A 8.131 8.131 0 0 0 72.3 14.4 A 6.413 6.413 0 0 0 71.933 12.214 A 6.004 6.004 0 0 0 71.64 11.535 A 5.759 5.759 0 0 0 70.388 9.864 A 5.451 5.451 0 0 0 69.855 9.435 Q 68.73 8.64 67.29 8.64 A 5.775 5.775 0 0 0 65.722 8.841 A 4.211 4.211 0 0 0 63.6 10.2 A 5.363 5.363 0 0 0 62.498 12.412 Q 62.3 13.209 62.282 14.145 A 9.86 9.86 0 0 0 62.28 14.34 Q 62.28 15.9 62.94 17.235 A 5.831 5.831 0 0 0 63.999 18.747 A 5.288 5.288 0 0 0 64.725 19.365 Q 65.85 20.16 67.29 20.16 Z M 144.57 20.16 A 5.622 5.622 0 0 0 146.138 19.953 A 4.2 4.2 0 0 0 148.26 18.555 A 5.641 5.641 0 0 0 149.406 16.128 A 8.131 8.131 0 0 0 149.58 14.4 A 6.413 6.413 0 0 0 149.213 12.214 A 6.004 6.004 0 0 0 148.92 11.535 A 5.759 5.759 0 0 0 147.668 9.864 A 5.451 5.451 0 0 0 147.135 9.435 Q 146.01 8.64 144.57 8.64 A 5.775 5.775 0 0 0 143.002 8.841 A 4.211 4.211 0 0 0 140.88 10.2 A 5.363 5.363 0 0 0 139.778 12.412 Q 139.58 13.209 139.562 14.145 A 9.86 9.86 0 0 0 139.56 14.34 Q 139.56 15.9 140.22 17.235 A 5.831 5.831 0 0 0 141.279 18.747 A 5.288 5.288 0 0 0 142.005 19.365 Q 143.13 20.16 144.57 20.16 Z M 158.61 10.62 L 158.61 18.3 Q 159.39 19.11 160.41 19.635 Q 161.43 20.16 162.63 20.16 A 4.187 4.187 0 0 0 164.479 19.759 Q 165.282 19.37 165.905 18.605 A 5.213 5.213 0 0 0 165.945 18.555 A 5.638 5.638 0 0 0 166.993 16.363 Q 167.192 15.556 167.216 14.612 A 10.366 10.366 0 0 0 167.22 14.34 Q 167.22 12.604 166.62 11.343 A 5.202 5.202 0 0 0 166.575 11.25 Q 165.93 9.96 164.865 9.27 Q 163.8 8.58 162.51 8.58 A 4.422 4.422 0 0 0 160.822 8.899 A 4.216 4.216 0 0 0 160.185 9.225 Q 159.15 9.87 158.61 10.62 Z M 16.71 13.32 L 25.26 13.32 A 7.307 7.307 0 0 0 25.139 11.944 Q 24.99 11.169 24.659 10.562 A 3.727 3.727 0 0 0 24.12 9.81 A 3.747 3.747 0 0 0 22.032 8.677 A 5.519 5.519 0 0 0 20.97 8.58 Q 19.23 8.58 18.09 9.795 Q 16.95 11.01 16.71 13.32 Z M 79.59 7.86 L 77.46 7.86 L 77.22 1.2 L 79.83 1.2 L 79.59 7.86 Z" vector-effect="non-scaling-stroke"/></g></svg>